PathFileType	4	(X/Y/Z)	C:/Users/beibeiliu/ov580/test_trc/capture2\sequence.25_training_dense_left.trc
DataRate	CameraRate	NumFrames	NumMarkers	Units	OrigDataRate	OrigDataStartFrame	OrigNumFrames
120	120	24	19	mm	120	301	343
Frame#	Time	ThumbCMC			ThumbMCP			ThumbIP			ThumbTip			IndexMCP			IndexPIP			IndexTip			MiddleMCP			MiddlePIP			MiddleTip			RingMCP			RingPIP			RingTip			PinkyMCP			PinkyPIP			PinkyTip			BackHand1			BackHand2			BackHand3	
		X0	Y0	Z0	X1	Y1	Z1	X2	Y2	Z2	X3	Y3	Z3	X4	Y4	Z4	X5	Y5	Z5	X6	Y6	Z6	X7	Y7	Z7	X8	Y8	Z8	X9	Y9	Z9	X10	Y10	Z10	X11	Y11	Z11	X12	Y12	Z12	X13	Y13	Z13	X14	Y14	Z14	X15	Y15	Z15	X16	Y16	Z16	X17	Y17	Z17	X18	Y18	Z18	
300	2.5	-93.719	10.8069	58.1598	-68.6141	10.4873	35.5706	-58.3441	16.1136	12.1732	-64.7539	20.9961	-14.932	-59.0359	37.4207	-8.89831	-50.1648	11.8001	-22.1814	-74.666	-8.44321	-8.76316	-77.2113	34.1682	-23.7794	-75.8976	3.70301	-28.3927	-91.6805	-0.77622	3.37776	-94.3394	30.8475	-31.2135	-92.7775	2.32063	-30.0031	-106.389	3.89389	4.58381	-118.341	43.7685	-33.9241	-112.49	40.9415	-51.6993	-104.472	42.3331	-73.5695	-124.27	49.2973	18.4319	-137.585	45.4008	41.2078	-108.508	44.6482	43.7289	
301	2.50833	-93.9648	30.0871	50.8031	-68.5161	31.7347	32.0379	-53.9156	36.0748	11.4837	-57.7631	39.336	-13.9686	-70.705	54.3299	-13.9065	-56.2614	30.2713	-27.5623	-68.7881	8.44232	-4.37067	-86.6438	44.8587	-26.5461	-79.6136	11.4277	-25.9083	-95.9354	11.6204	4.17393	-100.436	37.4661	-31.8645	-94.8693	5.9077	-30.2123	-102.362	11.2506	5.40012	-128.682	43.4925	-38.6933	-120.422	39.6196	-58.2155	-113.077	41.4188	-79.8738	-137.32	52.6585	10.2942	-148.735	47.565	35.3855	-114.765	57.2723	39.2482	
302	2.51667	-95.6402	48.0095	46.3048	-72.4313	52.7184	25.2206	-61.4513	59.247	6.76587	-55.2326	65.5717	-22.2068	-80.1348	68.0784	-22.1032	-62.8184	43.0213	-31.5189	-72.4353	27.3359	1.08531	-94.0842	49.5115	-34.88	-78.6567	22.9669	-26.0026	-90.6696	23.6986	5.6655	-104.984	38.6182	-39.6447	-93.6149	12.3617	-30.3721	-102.716	19.0837	5.38167	-133.998	39.4774	-42.7709	-124.697	37.0075	-62.6208	-119.67	35.1711	-86.1934	-146.354	52.6301	4.98218	-156.912	43.5767	29.6491	-125.787	63.6296	33.7589	
303	2.525	-102.962	61.2684	39.4803	-80.8683	71.1695	18.3832	-72.4483	77.5989	-3.20569	-63.0737	85.2314	-25.5586	-93.9466	74.5566	-31.7771	-70.2539	51.8066	-32.246	-77.6606	41.9586	-2.39783	-98.5351	54.91	-41.1459	-80.3896	33.082	-27.1802	-92.3935	39.0675	6.00912	-113.013	39.1166	-41.5043	-88.6156	24.6069	-29.8498	-99.8167	27.3379	3.27982	-136.894	35.2899	-44.1287	-128.481	29.0448	-68.7463	-122.934	27.786	-87.5315	-151.48	50.0746	-2.92291	-160.855	42.1008	24.1896	-136.85	67.8378	25.4954	
304	2.53333	-110.732	72.8864	31.5648	-89.4471	84.9185	11.5055	-85.2121	91.297	-13.9518	-80.115	96.2416	-37.5501	-102.154	80.7149	-37.2733	-75.9953	64.0084	-34.5132	-85.8312	53.972	-4.84802	-107.484	57.2375	-43.2993	-82.5103	43.9921	-33.409	-96.1203	45.0585	3.76705	-110.375	42.2164	-44.6675	-86.2662	33.9057	-27.2307	-97.4691	34.7392	1.12037	-137.117	29.1658	-48.6558	-127.039	26.9135	-68.2451	-122.775	23.5771	-91.196	-155.702	47.4541	-1.65368	-157.272	41.8718	24.3468	-143.349	73.148	19.4496	
305	2.54167	-119.707	82.6262	25.2927	-102.844	91.5457	5.47278	-96.3872	103.517	-21.3221	-91.9557	105.997	-45.1837	-107.689	88.0729	-42.9374	-82.1313	74.7195	-39.4485	-93.2233	66.1663	-4.9678	-113.974	61.1782	-45.9256	-84.0374	55.8117	-34.6455	-96.9733	57.5202	1.98439	-113.471	43.3518	-46.0488	-87.371	37.1045	-31.0281	-99.1382	45.5	0.684866	-136.61	24.009	-46.3538	-126.106	23.6208	-68.6133	-118.319	22.1678	-93.2302	-155.767	42.1352	-5.23958	-160.943	37.2272	19.9944	-151.72	70.4754	16.0035	
306	2.55	-128.458	86.77	23.9674	-114.851	98.4029	-1.49978	-111.424	108.778	-29.5563	-107.009	112.072	-49.7003	-119.007	86.5565	-47.704	-89.9377	81.1993	-39.4545	-99.9923	74.0354	-9.65727	-116.561	63.9568	-49.034	-87.7092	63.7238	-35.1985	-102.938	65.5807	0.564929	-111.726	45.1049	-47.6403	-87.6106	50.2799	-26.7555	-101.487	50.6784	0.5837	-132.622	26.0969	-46.926	-120.139	24.2036	-69.1582	-112.636	19.5176	-90.7359	-156.25	39.6535	-8.33231	-159.169	35.4161	20.4342	-158.566	65.8918	10.625	
307	2.55833	-140.251	94.0304	19.8376	-127.073	108.433	-4.05008	-124.883	111.539	-31.7621	-121.928	112.112	-56.8668	-129.484	89.0883	-51.6114	-99.0436	88.6386	-44.3743	-105.874	79.8528	-13.9348	-119.878	64.6512	-50.7873	-91.2702	71.5302	-33.9597	-106.872	71.4648	-2.53458	-113.614	51.908	-48.4994	-91.0627	60.5172	-29.4714	-104.094	58.0275	-0.467616	-127.267	23.3649	-48.7549	-117.125	24.1816	-66.852	-106.857	21.4137	-92.0937	-154.291	34.6161	-7.70456	-158.208	35.4841	18.8684	-164.808	66.8805	8.55612	
308	2.56667	-150.709	92.2492	12.7694	-141.726	108.862	-8.07739	-140.165	116.3	-36.3466	-136.004	114.896	-58.3784	-139.428	89.7137	-53.8182	-109.713	99.9538	-46.5365	-115.105	88.8649	-15.9319	-126.935	67.4214	-53.5052	-100.924	81.6869	-39.5531	-111.148	77.8851	-5.37207	-114.16	53.8846	-48.8719	-93.9637	67.5152	-31.1981	-109.839	70.3462	-3.76405	-123.43	23.6999	-44.8552	-110.591	26.0054	-68.2389	-104.381	23.9191	-88.0245	-154.887	35.2543	-8.3518	-155.319	32.0839	19.8762	-167.302	59.957	4.61193	
309	2.575	-161.769	91.1345	9.08483	-154.526	103.427	-13.6833	-154.696	110.325	-42.5083	-151.406	109.854	-67.5102	-149.141	86.3997	-56.3039	-119.98	99.5619	-50.458	-124.03	94.3667	-17.3923	-132.945	71.1802	-55.5604	-110.574	89.5982	-44.2294	-119.422	83.3054	-8.29025	-118.344	55.1027	-48.912	-102.504	78.1211	-33.1813	-118.344	74.2868	-1.80257	-122.395	30.2368	-47.9565	-110.589	31.8172	-67.0177	-101.739	32.5398	-91.0059	-151.591	28.9147	-9.35517	-153.931	32.3186	22.5131	-171.746	54.9009	0.861292	
310	2.58333	-168.911	87.6328	8.18727	-165.806	103.123	-16.7143	-163.527	104.987	-40.7509	-161.152	107.565	-65.6427	-155.262	84.6435	-58.2223	-128.107	100.447	-53.1385	-130.143	93.3251	-20.6071	-135.754	70.3874	-56.3412	-114.234	90.5894	-44.2844	-127.19	87.5114	-8.42363	-120.283	57.7251	-49.6806	-106.137	82.4448	-35.1723	-119.574	77.0127	-2.16553	-119.615	31.2675	-47.4657	-107.774	35.5006	-68.2257	-101.503	37.6367	-89.1698	-148.045	27.5103	-8.65987	-154.96	33.1036	19.6721	-173.168	53.9619	5.00429	
311	2.59167	-171.953	84.9322	10.9564	-169.348	97.8665	-17.5453	-173.497	106.097	-43.0314	-167.497	101.705	-66.2374	-155.834	79.2068	-59.6062	-135.437	101.33	-54.9423	-137.031	99.3754	-21.1226	-140.543	70.0126	-56.6013	-118.853	92.2774	-44.5284	-133.705	88.4985	-9.13087	-123.006	60.7022	-49.8952	-108.412	85.4318	-34.9889	-122.307	82.3702	-4.16691	-119.589	35.1018	-47.5971	-110.116	39.6162	-66.988	-98.2634	39.904	-88.7701	-145.078	28.5567	-8.25099	-152.486	33.3859	23.5926	-175.938	49.9504	-0.0210091	
312	2.6	-179.152	84.1716	8.02708	-174.854	95.2581	-16.5267	-176.557	100.387	-41.4336	-172.716	99.2703	-67.7056	-161.957	79.572	-59.2109	-141.752	103.018	-52.9497	-141.592	95.8802	-20.0607	-139.436	68.0265	-55.4295	-128.317	97.9225	-42.9709	-139.769	88.3188	-9.03595	-123.251	63.7324	-50.1692	-115.428	89.3395	-36.736	-129.913	84.8433	-5.93967	-117.688	37.3839	-47.8162	-108.81	44.1564	-67.2013	-99.1339	42.2027	-87.5671	-145.006	29.5034	-9.11641	-148.632	31.4988	23.9271	-173.775	48.2621	5.14107	
313	2.60833	-181.527	83.633	12.7683	-178.553	94.8015	-11.8403	-180.435	97.8697	-44.725	-179.302	99.6163	-66.5561	-166.049	77.6911	-56.4174	-145.214	101.435	-55.4639	-145.345	98.1875	-20.8514	-145.282	72.1792	-55.8577	-127.324	96.9582	-42.651	-142.445	89.4478	-8.57746	-125.274	67.3484	-50.1381	-114.681	90.8289	-33.3712	-131.819	85.9382	-3.89493	-117.831	41.4237	-42.5523	-109.905	47.3873	-65.3227	-101.234	50.02	-87.6067	-147.626	30.3041	-9.82682	-149.412	29.5982	24.5058	-175.516	46.3324	4.20251	
314	2.61667	-181.991	80.002	13.6561	-180.725	93.2818	-14.1233	-184.955	99.3164	-39.5626	-179.631	99.0816	-62.8846	-166.185	76.8018	-56.1732	-148.263	103.004	-54.0814	-149.943	99.0773	-20.0735	-143.288	71.4044	-53.8437	-132.266	99.9426	-43.5238	-144.266	91.3627	-9.71875	-123.752	66.3269	-48.3806	-121.377	94.5129	-36.9186	-132.858	90.5545	-5.27772	-118.088	44.7938	-45.5962	-108.419	50.6294	-61.6996	-99.8632	52.8101	-86.5686	-141.658	31.5111	-9.93836	-145.53	30.9899	24.723	-170.963	43.5654	3.22753	
315	2.625	-183.264	79.7596	13.494	-182.198	94.0031	-12.4167	-184.491	99.0128	-37.7707	-183.128	100.013	-66.4383	-165.322	83.2839	-58.6356	-152.368	108.882	-51.7766	-153.099	101.744	-18.8593	-143.633	78.9567	-55.7655	-135.486	105.49	-40.502	-144.154	91.6836	-8.12383	-126.211	72.0192	-48.7516	-121.89	99.1338	-33.0173	-132.31	91.5918	-3.19209	-115.94	49.1618	-45.237	-108.523	57.9112	-65.8425	-99.1775	63.4733	-89.4332	-143.666	34.7164	-7.98973	-143.298	31.8008	22.5581	-170.681	43.0155	4.38664	
316	2.63333	-181.552	79.3569	12.6614	-182.044	92.1883	-13.7437	-188.568	99.3375	-41.8631	-181.403	100.828	-60.5465	-167.533	80.512	-55.0725	-151.789	108.456	-52.9156	-156.755	102.7	-16.4325	-144.956	80.2353	-54.0326	-134.353	106.486	-39.8145	-146.799	92.477	-6.309	-123.309	78.2067	-48.4854	-121.525	103.633	-32.9373	-131.989	94.3885	-2.10798	-110.482	52.8012	-47.013	-104.293	63.0555	-64.3833	-100.129	70.1178	-85.9362	-140.358	36.9119	-6.16703	-144.235	34.0868	23.9137	-172.48	44.4521	3.28864	
317	2.64167	-185.129	80.9868	12.6519	-184.466	95.7006	-10.3566	-188.858	101.29	-39.2614	-184.144	103.021	-63.5799	-163.387	84.8638	-56.7245	-152.65	111.441	-51.3346	-153.326	100.964	-15.9154	-140.83	80.5249	-52.208	-140.352	111.699	-38.2245	-144.351	97.6261	-6.34407	-122.623	81.6891	-47.0023	-124.569	107.09	-33.7004	-135.169	96.4943	-1.72039	-110.416	56.9989	-42.6179	-104.263	68.2439	-64.6166	-98.0839	76.9412	-88.9882	-136.297	37.7833	-5.2118	-141.085	38.5236	24.2284	-168.575	47.7125	4.00299	
318	2.65	-184.676	81.6133	13.4792	-185.506	96.4902	-9.17294	-188.317	101.833	-39.166	-182.195	103.495	-59.8435	-164.22	88.8529	-56.2416	-157.549	117.077	-49.3508	-153.195	107.604	-15.9647	-144.02	89.9671	-52.9182	-135.809	114.202	-37.2063	-147.393	100.246	-4.73736	-126.668	82.4072	-45.788	-124.744	111.854	-31.2892	-136.747	97.8857	0.337838	-107.907	61.8539	-41.3965	-105.165	73.5766	-62.9898	-96.5136	82.4096	-83.1699	-134.418	42.4852	-4.14099	-138.834	41.8221	25.3637	-167.738	47.3723	6.41604	
319	2.65833	-183.679	82.8954	11.478	-187.016	99.0982	-9.0915	-188.943	105.036	-38.9728	-181.001	106.453	-58.6518	-166.316	92.5917	-55.1709	-154.551	118.047	-48.708	-152.305	107.312	-14.7994	-138.559	92.476	-52.403	-138.897	119.367	-34.1687	-146.606	104.84	-3.47815	-124.778	88.9453	-45.8151	-123.727	113.766	-31.0356	-134.417	102.669	0.917996	-110.013	66.8346	-41.1373	-98.9223	77.2083	-60.4482	-93.7252	87.9049	-84.9011	-132.197	46.9361	-9.53278	-138.63	43.5635	24.0392	-164.043	48.7779	5.01873	
320	2.66667	-179.118	82.9275	15.8716	-183.577	99.2876	-11.9938	-185.105	106.162	-38.139	-180.997	109.151	-61.9644	-160.832	91.5504	-52.3051	-154.897	122.915	-45.9161	-156.219	110.64	-11.2759	-137.73	92.4408	-49.1425	-137.917	122.535	-33.3531	-142.386	105.115	-1.46206	-121.657	94.7437	-44.846	-121.632	119.095	-25.4507	-134.315	101.802	4.45117	-104.616	70.2327	-40.0543	-101.258	82.0683	-60.7661	-91.4575	93.4691	-84.9987	-127.363	47.1335	-8.4483	-134.767	43.8032	23.2656	-162.625	52.2559	7.19636	
321	2.675	-176.886	84.1906	12.2553	-184.841	104.491	-8.01314	-185.439	110.607	-33.8409	-181.269	115.562	-58.6379	-156.805	100.051	-52.2114	-153.478	125.939	-43.728	-152.537	111.406	-8.82331	-138.302	99.9465	-49.7888	-133.785	124.003	-34.3003	-143.518	108.334	-0.439765	-121.634	95.099	-43.0029	-123.113	121.583	-24.0188	-133.907	105.757	3.93504	-105.522	74.456	-37.4816	-95.87	87.5434	-59.5503	-90.1477	97.9954	-82.5398	-127.563	51.0761	-6.62172	-135.641	45.1733	23.8378	-160.653	52.8103	5.1518	
322	2.68333	-177.071	87.7466	17.6916	-180.4	105.855	-9.37191	-183.965	115.099	-33.4042	-175.384	118.425	-58.2288	-153.853	104.834	-51.4726	-146.725	128.531	-40.9512	-147.159	114.312	-10.0171	-137.541	102.798	-48.3374	-129.881	127.202	-31.3922	-145.36	109.919	1.50045	-115.79	99.2733	-40.1991	-118.773	123.722	-21.9853	-131.793	108.901	3.5797	-102.319	78.6145	-39.9932	-90.783	92.1259	-57.8263	-88.3956	102.728	-76.3762	-129.31	54.8587	-5.75255	-133.002	48.9414	22.7662	-157.683	57.3638	1.00681	
323	2.69167	-177.863	90.3109	14.4881	-178.236	108.981	-5.00406	-177.483	117.847	-28.8797	-171.767	123.987	-53.0112	-152.819	107.163	-49.4139	-148.307	134.065	-38.8365	-148.384	115.459	-5.72414	-133.678	105.443	-45.9213	-130.952	131.47	-28.0813	-143.206	111.146	3.19631	-116.358	105.482	-39.5842	-114.395	126.017	-17.5472	-128.91	106.752	8.59698	-99.977	80.9584	-37.0385	-90.0915	94.388	-55.4323	-81.9473	109.74	-75.6186	-124.228	52.8825	-4.19821	-132.187	50.0154	20.7048	-161.98	60.2232	1.52365	
